<svg xmlns="http://www.w3.org/2000/svg" height="696.86035pt" version="1.1" viewBox="0 0 696.86035 696.86035" width="696.86035pt">
<g id="surface1">
<path d="M 456.988281 175.058594 C 458.128906 176.625 458.886719 178.441406 459.199219 180.367188 L 467.1875 229.671875 L 472.601562 230.5625 L 516.453125 237.648438 C 518.378906 237.960938 520.203125 238.714844 521.777344 239.863281 L 537.429688 251.109375 L 562.3125 269.085938 L 587.167969 251.15625 L 602.828125 239.914062 C 604.40625 238.765625 606.226562 238.007812 608.148438 237.695312 L 651.996094 230.609375 L 657.421875 229.726562 L 665.40625 180.414062 C 665.71875 178.5 666.476562 176.679688 667.617188 175.109375 L 696.859375 134.546875 L 667.648438 94.027344 C 666.5 92.460938 665.742188 90.644531 665.429688 88.71875 L 657.445312 39.414062 L 608.140625 31.429688 C 606.214844 31.117188 604.398438 30.359375 602.828125 29.214844 L 562.3125 0 L 521.800781 29.214844 C 520.234375 30.359375 518.414062 31.117188 516.492188 31.429688 L 467.1875 39.414062 L 459.199219 88.71875 C 458.886719 90.644531 458.128906 92.460938 456.988281 94.027344 L 427.769531 134.546875 Z M 562.3125 47.074219 C 610.625 47.074219 649.785156 86.230469 649.785156 134.546875 C 649.785156 182.855469 610.625 222.015625 562.3125 222.015625 C 514.003906 222.015625 474.84375 182.855469 474.84375 134.546875 C 474.90625 86.265625 514.03125 47.132812 562.3125 47.074219 Z M 562.3125 47.074219 " style=" stroke:none;fill-rule:nonzero;fill:#23d18b;fill-opacity:1;" />
<path d="M 49.984375 234.511719 L 124.960938 234.511719 L 124.960938 309.488281 L 49.984375 309.488281 Z M 49.984375 234.511719 " style=" stroke:none;fill-rule:nonzero;fill:#23d18b;fill-opacity:1;" />
<path d="M 49.984375 396.957031 L 124.960938 396.957031 L 124.960938 471.933594 L 49.984375 471.933594 Z M 49.984375 396.957031 " style=" stroke:none;fill-rule:nonzero;fill:#23d18b;fill-opacity:1;" />
<path d="M 477.703125 256.703125 L 445.082031 321.984375 L 474.84375 321.984375 C 479.023438 321.984375 482.925781 324.066406 485.238281 327.539062 L 498.285156 347.128906 L 532.613281 278.484375 L 526.164062 273.824219 L 509.566406 261.851562 Z M 477.703125 256.703125 " style=" stroke:none;fill-rule:nonzero;fill:#23d18b;fill-opacity:1;" />
<path d="M 49.984375 559.40625 L 124.960938 559.40625 L 124.960938 634.378906 L 49.984375 634.378906 Z M 49.984375 559.40625 " style=" stroke:none;fill-rule:nonzero;fill:#23d18b;fill-opacity:1;" />
<path d="M 615.0625 261.851562 L 598.46875 273.824219 L 592.015625 278.484375 L 626.34375 347.128906 L 639.390625 327.539062 C 641.710938 324.066406 645.605469 321.984375 649.785156 321.984375 L 679.550781 321.984375 L 646.921875 256.703125 Z M 615.0625 261.851562 " style=" stroke:none;fill-rule:nonzero;fill:#23d18b;fill-opacity:1;" />
<path d="M 562.3125 197.023438 C 596.820312 197.023438 624.796875 169.046875 624.796875 134.546875 C 624.796875 100.039062 596.820312 72.066406 562.3125 72.066406 C 527.8125 72.066406 499.835938 100.039062 499.835938 134.546875 C 499.878906 169.039062 527.820312 196.984375 562.3125 197.023438 Z M 556.734375 98.367188 C 560.605469 96.4375 565.203125 96.640625 568.886719 98.914062 C 572.574219 101.203125 574.808594 105.21875 574.808594 109.550781 L 574.808594 172.03125 L 549.820312 172.03125 L 549.820312 129.773438 L 542.90625 133.234375 L 531.738281 110.863281 Z M 556.734375 98.367188 " style=" stroke:none;fill-rule:nonzero;fill:#23d18b;fill-opacity:1;" />
<path d="M 569.625 294.628906 C 565.265625 297.777344 559.371094 297.777344 555.003906 294.628906 L 553.144531 293.28125 L 511.078125 377.546875 C 509.09375 381.539062 505.121094 384.164062 500.671875 384.4375 L 499.835938 384.460938 C 495.65625 384.460938 491.757812 382.378906 489.4375 378.90625 L 468.160156 346.972656 L 424.859375 346.972656 C 420.515625 346.996094 416.476562 344.765625 414.183594 341.078125 C 411.890625 337.386719 411.675781 332.777344 413.613281 328.898438 L 451.976562 252.167969 C 447.738281 250.671875 444.648438 247.007812 443.875 242.582031 L 434.945312 187.289062 L 402.167969 141.855469 C 399.019531 137.492188 399.019531 131.597656 402.167969 127.234375 L 434.945312 81.796875 L 436.582031 72.066406 L 37.484375 72.066406 C 16.789062 72.066406 0 88.851562 0 109.550781 L 0 659.371094 C 0 680.074219 16.789062 696.859375 37.484375 696.859375 L 574.808594 696.859375 C 595.511719 696.859375 612.300781 680.074219 612.300781 659.371094 L 612.300781 374.914062 L 571.484375 293.246094 Z M 174.941406 284.496094 L 174.941406 259.5 L 387.375 259.5 L 387.375 284.496094 Z M 387.375 309.488281 L 387.375 334.476562 L 312.398438 334.476562 L 312.398438 309.488281 Z M 174.941406 334.476562 L 174.941406 309.488281 L 287.40625 309.488281 L 287.40625 334.476562 Z M 262.414062 371.96875 L 262.414062 396.957031 L 174.941406 396.957031 L 174.941406 371.96875 Z M 174.941406 234.511719 L 174.941406 209.523438 L 262.414062 209.523438 L 262.414062 234.511719 Z M 124.960938 97.054688 L 149.953125 97.054688 L 149.953125 122.050781 L 124.960938 122.050781 Z M 74.976562 97.054688 L 99.964844 97.054688 L 99.964844 122.050781 L 74.976562 122.050781 Z M 24.992188 97.054688 L 49.984375 97.054688 L 49.984375 122.050781 L 24.992188 122.050781 Z M 24.992188 147.039062 L 374.878906 147.039062 L 374.878906 172.03125 L 24.992188 172.03125 Z M 174.941406 496.921875 L 174.941406 471.933594 L 287.40625 471.933594 L 287.40625 496.921875 Z M 262.414062 534.414062 L 262.414062 559.40625 L 174.941406 559.40625 L 174.941406 534.414062 Z M 149.953125 646.875 C 149.953125 653.78125 144.355469 659.371094 137.457031 659.371094 L 37.484375 659.371094 C 30.585938 659.371094 24.992188 653.78125 24.992188 646.875 L 24.992188 546.910156 C 24.992188 540.007812 30.585938 534.414062 37.484375 534.414062 L 137.457031 534.414062 C 144.355469 534.414062 149.953125 540.007812 149.953125 546.910156 Z M 149.953125 484.429688 C 149.953125 491.328125 144.355469 496.921875 137.457031 496.921875 L 37.484375 496.921875 C 30.585938 496.921875 24.992188 491.328125 24.992188 484.429688 L 24.992188 384.460938 C 24.992188 377.5625 30.585938 371.96875 37.484375 371.96875 L 137.457031 371.96875 C 144.355469 371.96875 149.953125 377.5625 149.953125 384.460938 Z M 149.953125 321.984375 C 149.953125 328.882812 144.355469 334.476562 137.457031 334.476562 L 37.484375 334.476562 C 30.585938 334.476562 24.992188 328.882812 24.992188 321.984375 L 24.992188 222.015625 C 24.992188 215.117188 30.585938 209.523438 37.484375 209.523438 L 137.457031 209.523438 C 144.355469 209.523438 149.953125 215.117188 149.953125 222.015625 Z M 287.40625 659.371094 L 174.941406 659.371094 L 174.941406 634.378906 L 287.40625 634.378906 Z M 462.347656 659.371094 L 312.398438 659.371094 L 312.398438 634.378906 L 462.347656 634.378906 Z M 462.347656 609.390625 L 174.941406 609.390625 L 174.941406 584.394531 L 462.347656 584.394531 Z M 462.347656 496.921875 L 312.398438 496.921875 L 312.398438 471.933594 L 462.347656 471.933594 Z M 462.347656 446.945312 L 174.941406 446.945312 L 174.941406 421.949219 L 462.347656 421.949219 Z M 462.347656 446.945312 " style=" stroke:none;fill-rule:nonzero;fill:#23d18b;fill-opacity:1;" />
</g>
</svg>