<svg xmlns="http://www.w3.org/2000/svg" height="935pt" version="1.1" viewBox="0 0 935.00112 935" width="935pt">
<g id="surface1">
<path d="M 77.910156 934.921875 L 747.941406 934.921875 C 790.9375 934.871094 825.796875 900.023438 825.851562 857.011719 L 825.851562 545.371094 L 794.683594 545.371094 L 794.683594 857.011719 C 794.683594 882.828125 773.75 903.753906 747.941406 903.753906 L 77.910156 903.753906 C 52.085938 903.753906 31.164062 882.828125 31.164062 857.011719 L 31.164062 171.40625 C 31.164062 145.585938 52.085938 124.660156 77.910156 124.660156 L 545.371094 124.660156 L 545.371094 93.488281 L 77.910156 93.488281 C 34.902344 93.542969 0.046875 128.390625 0 171.40625 L 0 857.011719 C 0.046875 900.023438 34.902344 934.871094 77.910156 934.921875 Z M 77.910156 934.921875 " style=" stroke:none;fill-rule:nonzero;fill:#23d18b;fill-opacity:1;" />



<path d="M 62.324219 155.824219 L 93.488281 155.824219 L 93.488281 186.984375 L 62.324219 186.984375 Z M 62.324219 155.824219 " style=" stroke:none;fill-rule:nonzero;fill:rgb(0%,0%


,0%);fill-opacity:1;" />
<path d="M 124.65625 155.824219 L 155.820312 155.824219 L 155.820312 186.984375 L 124.65625 186.984375 Z M 124.65625 155.824219 " style=" stroke:none;fill-rule:nonzero;fill:#23d18b;fill-opacity:1;" />
<path d="M 186.980469 155.824219 L 218.144531 155.824219 L 218.144531 186.984375 L 186.980469 186.984375 Z M 186.980469 155.824219 " style=" stroke:none;fill-rule:nonzero;fill:#23d18b;fill-opacity:1;" />
<path d="M 62.324219 218.148438 L 498.625 218.148438 L 498.625 249.3125 L 62.324219 249.3125 Z M 62.324219 218.148438 " style=" stroke:none;fill-rule:nonzero;fill:#23d18b;fill-opacity:1;" />
<path d="M 891.105469 136.796875 L 879.957031 67.839844 C 878.882812 61.222656 873.699219 56.03125 867.078125 54.957031 L 798.125 43.8125 L 741.472656 2.945312 C 736.023438 -0.980469 728.683594 -0.980469 723.230469 2.945312 L 666.578125 43.8125 L 597.628906 54.957031 C 591.007812 56.03125 585.816406 61.222656 584.738281 67.839844 L 573.597656 136.796875 L 532.738281 193.453125 C 528.808594 198.890625 528.808594 206.242188 532.738281 211.679688 L 573.597656 268.34375 L 584.738281 337.289062 C 585.707031 342.804688 589.558594 347.378906 594.84375 349.242188 L 547.007812 444.917969 C 544.585938 449.746094 544.847656 455.488281 547.691406 460.074219 C 550.527344 464.667969 555.550781 467.460938 560.949219 467.460938 L 614.945312 467.460938 L 641.425781 507.277344 C 644.332031 511.625 649.222656 514.222656 654.445312 514.203125 L 655.40625 514.203125 C 660.957031 513.863281 665.902344 510.59375 668.386719 505.625 L 720.910156 400.460938 L 723.230469 402.144531 C 728.683594 406.070312 736.023438 406.070312 741.472656 402.144531 L 743.792969 400.460938 L 796.320312 505.542969 C 798.800781 510.507812 803.738281 513.78125 809.273438 514.132812 L 810.265625 514.203125 C 815.464844 514.203125 820.332031 511.605469 823.226562 507.277344 L 849.761719 467.460938 L 903.761719 467.460938 C 909.164062 467.488281 914.214844 464.707031 917.078125 460.109375 C 919.929688 455.507812 920.199219 449.757812 917.78125 444.917969 L 869.941406 349.242188 C 875.21875 347.378906 879.074219 342.804688 880.035156 337.289062 L 891.179688 268.34375 L 932.050781 211.679688 C 935.984375 206.242188 935.984375 198.890625 932.050781 193.453125 Z M 652.515625 467.65625 L 636.234375 443.230469 C 633.34375 438.90625 628.484375 436.292969 623.28125 436.292969 L 586.160156 436.292969 L 626.839844 354.898438 L 666.578125 361.316406 L 687.273438 376.246094 L 695.3125 382.058594 Z M 878.542969 436.292969 L 841.429688 436.292969 C 836.222656 436.292969 831.351562 438.90625 828.46875 443.230469 L 812.191406 467.65625 L 769.394531 382.058594 L 777.425781 376.246094 L 798.125 361.316406 L 837.863281 354.898438 Z M 863.691406 253.089844 C 862.269531 255.046875 861.324219 257.308594 860.941406 259.710938 L 850.976562 321.191406 L 844.214844 322.300781 L 789.539062 331.132812 C 787.132812 331.523438 784.867188 332.464844 782.894531 333.898438 L 763.375 347.921875 L 732.359375 370.339844 L 701.359375 347.980469 L 681.839844 333.957031 C 679.867188 332.527344 677.601562 331.582031 675.195312 331.195312 L 620.519531 322.367188 L 613.757812 321.253906 L 603.808594 259.769531 C 603.417969 257.378906 602.464844 255.109375 601.042969 253.148438 L 564.578125 202.570312 L 601.011719 152.046875 C 602.4375 150.09375 603.386719 147.820312 603.765625 145.429688 L 613.722656 83.945312 L 675.207031 73.988281 C 677.605469 73.597656 679.867188 72.652344 681.839844 71.222656 L 732.359375 34.792969 L 782.867188 71.222656 C 784.832031 72.652344 787.101562 73.597656 789.5 73.988281 L 850.976562 83.945312 L 860.941406 145.429688 C 861.324219 147.820312 862.269531 150.09375 863.691406 152.046875 L 900.121094 202.570312 Z M 863.691406 253.089844 " style=" stroke:none;fill-rule:nonzero;fill:#23d18b;fill-opacity:1;" />
<path d="M 732.359375 93.488281 C 672.113281 93.488281 623.28125 142.320312 623.28125 202.570312 C 623.28125 262.808594 672.113281 311.640625 732.359375 311.640625 C 792.59375 311.640625 841.429688 262.808594 841.429688 202.570312 C 841.347656 142.359375 792.558594 93.566406 732.359375 93.488281 Z M 732.359375 280.480469 C 689.324219 280.480469 654.445312 245.59375 654.445312 202.570312 C 654.445312 159.542969 689.324219 124.660156 732.359375 124.660156 C 775.382812 124.660156 810.265625 159.542969 810.265625 202.570312 C 810.210938 245.574219 775.359375 280.421875 732.359375 280.480469 Z M 732.359375 280.480469 " style=" stroke:none;f


ill-rule:nonzero;fill:#23d18b;fill-opacity:1;" />
<path d="M 740.535156 158.140625 C 735.941406 155.3125 730.210938 155.042969 725.386719 157.453125 L 694.226562 173.039062 L 708.15625 200.929688 L 716.777344 196.617188 L 716.777344 249.3125 L 747.941406 249.3125 L 747.941406 171.40625 C 747.925781 166 745.136719 160.980469 740.535156 158.140625 Z M 740.535156 158.140625 " style=" stroke:none;fill-rule:nonzero;fill:#23d18b;fill-opacity:1;" />



<path d="M 218.144531 311.640625 C 218.144531 303.039062 211.175781 296.058594 202.566406 296.058594 L 77.910156 296.058594 C 69.300781 296.058594 62.324219 303.039062 62.324219 311.640625 L 62.324219 436.292969 C 62.324219 444.898438 69.300781 451.878906 77.910156 451.878906 L 202.566406 451.878906 C 211.175781 451.878906 218.144531 444.898438 218.144531 436.292969 Z M 186.980469 420.714844 L 93.488281 420.714844 L 93.488281 327.222656 L 186.980469 327.222656 Z M 186.980469 420.714844 " style=" stroke:none;fill-rule:nonzero;fill:#23d18b;fill-opacity:1;" />
<path d="M 249.316406 296.058594 L 358.390625 296.058594 L 358.390625 327.222656 L 249.316406 327.222656 Z M 249.316406 296.058594 " style=" stroke:none;fill-rule:nonzero;fill:#23d18b;fill-opacity:1;" />
<path d="M 249.316406 358.382812 L 514.207031 358.382812 L 514.207031 389.550781 L 249.316406 389.550781 Z M 249.316406 358.382812 " style=" stroke:none;fill-rule:nonzero;fill:#23d18b;fill-opacity:1;" />
<path d="M 249.316406 420.714844 L 389.550781 420.714844 L 389.550781 451.878906 L 249.316406 451.878906 Z M 249.316406 420.714844 " style=" stroke:none;fill-rule:nonzero;fill:#23d18b;fill-opacity:1;" />
<path d="M 420.714844 420.714844 L 514.207031 420.714844 L 514.207031 451.878906 L 420.714844 451.878906 Z M 420.714844 420.714844 " style=" stroke:none;fill-rule:nonzero;fill:#23d18b;fill-opacity:1;" />
<path d="M 218.144531 514.203125 C 218.144531 505.601562 211.175781 498.625 202.566406 498.625 L 77.910156 498.625 C 69.300781 498.625 62.324219 505.601562 62.324219 514.203125 L 62.324219 638.863281 C 62.324219 647.46875 69.300781 654.449219 77.910156 654.449219 L 202.566406 654.449219 C 211.175781 654.449219 218.144531 647.46875 218.144531 638.863281 Z M 186.980469 623.285156 L 93.488281 623.285156 L 93.488281 529.785156 L 186.980469 529.785156 Z M 186.980469 623.285156 " style=" stroke:none;fill-rule:nonzero;fill:#23d18b;fill-opacity:1;" />
<path d="M 249.316406 498.625 L 358.390625 498.625 L 358.390625 529.785156 L 249.316406 529.785156 Z M 249.316406 498.625 " style=" stroke:none;fill-rule:nonzero;fill:#23d18b;fill-opacity:1;" />
<path d="M 249.316406 560.949219 L 607.695312 560.949219 L 607.695312 592.121094 L 249.316406 592.121094 Z M 249.316406 560.949219 " style=" stroke:none;fill-rule:nonzero;fill:#23d18b;fill-opacity:1;" />
<path d="M 249.316406 623.285156 L 389.550781 623.285156 L 389.550781 654.449219 L 249.316406 654.449219 Z M 249.316406 623.285156 " style=" stroke:none;fill-rule:nonzero;fill:#23d18b;fill-opacity:1;" />
<path d="M 420.714844 623.285156 L 607.695312 623.285156 L 607.695312 654.449219 L 420.714844 654.449219 Z M 420.714844 623.285156 " style=" stroke:none;fill-rule:nonzero;fill:#23d18b;fill-opacity:1;" />
<path d="M 202.566406 701.195312 L 77.910156 701.195312 C 69.300781 701.195312 62.324219 708.171875 62.324219 716.773438 L 62.324219 841.429688 C 62.324219 850.035156 69.300781 857.011719 77.910156 857.011719 L 202.566406 857.011719 C 211.175781 857.011719 218.144531 850.035156 218.144531 841.429688 L 218.144531 716.773438 C 218.144531 708.171875 211.175781 701.195312 202.566406 701.195312 Z M 186.980469 825.851562 L 93.488281 825.851562 L 93.488281 732.355469 L 186.980469 732.355469 Z M 186.980469 825.851562 " style=" stroke:none;fill-rule:nonzero;fill:#23d18b;fill-opacity:1;" />
<path d="M 249.316406 701.195312 L 358.390625 701.195312 L 358.390625 732.355469 L 249.316406 732.355469 Z M 249.316406 701.195312 " style=" stroke:none;fill-rule:nonzero;fill:#23d18b;fill-opacity:1;" />
<path d="M 249.316406 763.519531 L 607.695312 763.519531 L 607.695312 794.683594 L 249.316406 794.683594 Z M 249.316406 763.519531 " style=" stroke:none;fill-rule:nonzero;fill:#23d18b;fill-opacity:1;" />
<path d="M 249.316406 825.851562 L 389.550781 825.851562 L 389.550781 857.011719 L 249.316406 857.011719 Z M 249.316406 825.851562 " style=" stroke:none;fill-rule:nonzero;fill:#23d18b;fill-opacity:1;" />
<path d="M 420.714844 825.851562 L 607.695312 825.851562 L 607.695312 857.011719 L 420.714844 857.011719 Z M 420.714844 825.851562 " style=" stroke:none;fill-rule:nonzero;fill:#23d18b;fill-opacity:1;" />
</g>
</svg>