<svg enable-background="new 0 0 24 24" height="512" viewBox="0 0 24 24" width="512" xmlns="http://www.w3.org/2000/svg"><path style="fill:#23d18b;" d="m23.988.765c.002-.1-.015-.197-.052-.291-.008-.021-.011-.042-.021-.062-.046-.091-.106-.175-.189-.243-.012-.01-.027-.013-.04-.022-.007-.005-.01-.015-.017-.02-.015-.01-.035-.008-.051-.017-.087-.05-.179-.08-.276-.092-.028-.003-.052-.01-.08-.01-.116-.002-.23.021-.336.073-.007.003-.015.001-.022.005l-22.5 11.75c-.261.137-.418.413-.402.707.017.294.204.551.479.657l7.362 2.85 1.422 7.42c.004.021.016.038.021.058.009.032.021.062.034.093.025.058.057.111.095.161.012.015.016.034.029.049.007.008.017.01.024.018.067.069.143.129.232.168.004.002.009.002.013.004.069.029.141.05.218.057.024.002.047.003.071.003.085 0 .166-.017.244-.044.022-.008.042-.021.064-.031.057-.026.11-.057.159-.097.01-.008.023-.011.033-.02l5.409-4.857 5.335 1.928c.082.025.168.04.254.04.141 0 .281-.04.403-.117.196-.125.323-.334.344-.565l1.75-19.5c.002-.019-.01-.035-.009-.053zm-13.737 19.89-.94-4.906 9.215-9.215-6.646 10.052c-.029.044-.053.09-.072.138z"/></svg>